<?xml version="1.0" encoding="utf-8"?>
<!DOCTYPE svg PUBLIC "-//W3C//DTD SVG 20010904//EN" "http://www.w3.org/TR/2001/REC-SVG-20010904/DTD/svg10.dtd">
<svg version="1.0" xmlns="http://www.w3.org/2000/svg" width="261pt" height="90pt" viewBox="0 0 261 90" style="" preserveAspectRatio="xMidYMid meet">
<g fill="#FFFFFFFF" stroke="#FFFFFFFF">
<path d="M 183.500 1.560 C 182.950 1.706 181.301 2.088 179.836 2.410 C 176.503 3.142 171.383 9.507 168.580 16.405 C 165.098 24.973 152.338 34.917 144.750 34.978 C 142.282 34.998 142.000 34.650 142.000 31.579 C 142.000 29.697 142.923 24.273 144.050 19.525 C 146.303 10.040 146.004 7.414 142.487 5.812 C 140.605 4.955 139.483 5.156 136.758 6.841 C 134.894 7.993 132.541 9.850 131.529 10.968 C 128.913 13.859 128.163 13.514 127.810 9.258 C 127.602 6.750 126.960 5.414 125.861 5.206 C 124.512 4.951 124.012 6.453 123.033 13.698 C 122.378 18.539 121.671 23.400 121.462 24.500 C 121.007 26.895 103.636 35.000 98.957 35.000 C 96.205 35.000 96.001 34.741 96.012 31.250 C 96.018 29.188 96.688 25.025 97.500 22.000 C 99.840 13.284 99.163 7.144 95.600 4.765 C 93.322 3.244 87.210 4.091 82.105 6.635 C 77.286 9.037 71.874 14.667 70.220 19.000 C 69.052 22.061 58.850 32.819 55.993 34.003 C 50.465 36.293 49.834 35.192 50.185 23.889 C 50.494 13.954 50.451 13.728 47.859 11.769 C 45.533 10.010 44.786 9.915 41.584 10.972 C 39.585 11.632 36.681 13.239 35.131 14.543 L 32.313 16.914 30.191 14.044 C 27.329 10.174 22.965 9.313 18.187 11.677 C 15.271 13.120 13.823 13.310 11.625 12.537 C 9.079 11.642 8.474 11.907 5.402 15.258 C 3.531 17.300 2.000 19.683 2.000 20.553 C 2.000 22.082 3.015 22.034 7.683 20.282 C 8.481 19.982 8.263 21.827 7.016 25.947 C 3.979 35.977 3.601 39.633 5.525 40.371 C 6.435 40.721 7.557 40.774 8.017 40.490 C 8.477 40.205 10.264 35.430 11.989 29.878 C 15.489 18.615 18.148 15.000 22.935 15.000 C 26.842 15.000 27.603 17.717 26.105 26.318 C 24.394 36.146 24.618 40.000 26.900 40.000 C 28.370 40.000 29.078 38.811 30.027 34.750 C 32.772 23.001 38.333 15.000 43.754 15.000 L 46.239 15.000 45.536 25.309 C 44.772 36.523 44.990 37.124 50.287 38.391 C 54.442 39.384 60.471 37.365 64.392 33.667 C 67.668 30.577 67.900 30.506 68.420 32.444 C 68.724 33.575 68.979 35.497 68.986 36.715 C 69.020 42.208 76.121 41.485 85.302 35.054 L 90.930 31.111 91.590 34.628 C 92.851 41.348 99.552 41.272 113.232 34.383 L 120.250 30.849 119.562 35.432 C 119.003 39.163 119.178 40.131 120.505 40.640 C 122.968 41.585 124.067 39.845 125.587 32.594 C 126.348 28.962 128.074 23.814 129.421 21.155 C 132.165 15.741 138.745 9.345 140.138 10.738 C 140.662 11.262 140.197 15.681 139.015 21.425 C 136.564 33.338 136.504 36.361 138.672 38.529 C 139.926 39.783 141.319 40.045 144.248 39.576 C 149.101 38.800 158.556 34.089 162.361 30.550 C 163.935 29.087 165.337 28.027 165.476 28.195 C 165.615 28.363 166.228 29.461 166.838 30.635 C 168.514 33.862 172.220 34.284 178.954 32.015 C 182.245 30.907 185.218 30.000 185.562 30.000 C 185.906 30.000 185.865 32.348 185.470 35.217 C 184.928 39.156 183.829 41.546 180.984 44.967 C 176.036 50.920 173.586 55.967 170.448 66.678 C 167.966 75.147 167.709 81.473 169.643 86.512 C 170.536 88.840 175.413 88.274 178.412 85.494 C 183.470 80.807 185.853 73.610 187.493 58.069 C 188.322 50.214 189.000 43.581 189.000 43.330 C 189.000 41.715 211.669 33.883 212.449 35.229 C 215.860 41.122 216.022 41.224 220.839 40.505 C 232.844 38.714 241.411 30.798 243.803 19.288 C 244.616 15.371 245.280 15.013 256.250 12.573 C 257.860 12.215 259.000 11.294 259.000 10.350 C 259.000 9.031 258.320 8.864 255.250 9.434 C 244.810 11.371 243.253 11.317 239.852 8.894 C 230.845 2.481 220.000 9.452 214.611 25.118 L 212.415 31.500 206.958 32.123 C 203.956 32.466 199.052 33.693 196.060 34.850 C 193.067 36.006 190.401 36.734 190.135 36.468 C 189.015 35.348 192.194 23.063 194.982 17.735 C 196.642 14.565 198.000 11.117 198.000 10.074 C 198.000 7.733 192.779 3.203 189.173 2.416 C 187.703 2.095 186.050 1.712 185.500 1.564 C 184.950 1.416 184.050 1.414 183.500 1.560 M 190.000 8.000 C 192.381 10.381 192.432 11.031 190.576 15.472 C 186.836 24.424 175.937 31.851 171.034 28.789 C 168.466 27.186 168.483 25.935 171.138 20.730 C 174.231 14.667 178.753 9.374 182.360 7.595 C 186.497 5.554 187.613 5.613 190.000 8.000 M 236.250 15.642 C 239.379 16.159 240.000 16.662 240.000 18.681 C 240.000 25.915 228.884 36.000 220.910 36.000 L 217.720 36.000 218.304 30.341 C 218.827 25.272 219.385 24.178 223.657 19.841 C 228.509 14.915 229.616 14.545 236.250 15.642 M 91.878 10.904 C 92.944 11.579 93.098 13.262 92.555 18.328 C 91.905 24.398 91.537 25.172 87.541 28.855 C 82.640 33.373 78.047 36.000 75.050 36.000 C 72.660 36.000 72.685 36.295 74.405 28.280 C 75.746 22.028 78.782 17.366 84.839 12.255 C 87.669 9.867 89.644 9.488 91.878 10.904 M 183.969 51.250 C 183.899 56.338 181.891 68.809 180.435 73.193 C 178.868 77.912 175.553 83.000 174.044 83.000 C 170.692 83.000 173.431 66.887 178.592 56.250 C 182.158 48.900 184.025 47.164 183.969 51.250 "/></g>
</svg>
